# xmcd
#
# Track frame offsets:
#	183
#	19230
#	34225
#	48615
#	66280
#	83255
#	101245
#	119098
#	135578
#	154670
#	172360
#	190445
#
# Disc length: 2741 seconds
#
# Revision: 0
# Processed by: cddbd v1.4PL0 Copyright (c) Steve Scherf et al.
# Submitted via: dBpowerAMP V4.0
#
DISCID=ae0ab30c
DTITLE=Maria da Paz - Maria da Paz
DYEAR=1993
DGENRE=Forró
TTITLE0=Meu Ponto Fraco
TTITLE1=Coração Navegante
TTITLE2=Tem Nada Não
TTITLE3=Um Beijo
TTITLE4=Menino Bonito
TTITLE5=Teu Sonho Não Acabou
TTITLE6=Manhas
TTITLE7=Correntes de desejo
TTITLE8=Verdade Nua e Crua
TTITLE9=Tudo de Novo
TTITLE10=Nossa Canção
TTITLE11=Gosto de Maçã
EXTD=
EXTT0=
EXTT1=
EXTT2=
EXTT3=
EXTT4=
EXTT5=
EXTT6=
EXTT7=
EXTT8=
EXTT9=
EXTT10=
EXTT11=
PLAYORDER=
